<?xml version="1.0" encoding="UTF-8"?>
<svg xmlns="http://www.w3.org/2000/svg" xmlns:xlink="http://www.w3.org/1999/xlink" width="4125" height="4125" viewBox="0 0 4125 4125">
<rect x="-412.5" y="-412.5" width="4950" height="4950" fill="rgb(94.921875%, 94.921875%, 94.921875%)" fill-opacity="1"/>
<path fill="none" stroke-width="141.732" stroke-linecap="round" stroke-linejoin="round" stroke="rgb(0%, 0%, 0%)" stroke-opacity="1" stroke-miterlimit="10" d="M 11012.382812 9981.015625 C 12506.015625 10306.914062 13050.78125 12856.601562 13428.203125 12402.5 C 13805.703125 11948.515625 12522.304688 9905.3125 13126.289062 9905.3125 C 13730.195312 9905.3125 15013.59375 12478.203125 15542.109375 12024.21875 C 16070.507812 11570.117188 19694.21875 6954.101562 21656.992188 7937.851562 C 23619.882812 8921.601562 22333.710938 12284.882812 24629.101562 13248.085938 C 26924.492188 14211.210938 30867.304688 12780.898438 32641.40625 14559.21875 C 34415.507812 16337.5 25493.59375 13656.484375 24255.390625 15067.382812 C 22402.1875 17179.101562 23451.40625 13997.109375 25109.492188 14211.210938 C 26771.992188 14425.898438 31995.78125 14585.78125 33063.515625 14799.804688 C 34131.09375 15013.90625 35245.898438 16299.6875 35623.398438 17018.59375 C 36000.78125 17737.5 34641.992188 16223.984375 34188.984375 17851.015625 C 33736.015625 19477.890625 32943.398438 16375.390625 36000.78125 17661.796875 C 39058.28125 18948.203125 36566.992188 20499.492188 35585.585938 20158.984375 C 34604.21875 19818.515625 33622.8125 18796.914062 34075.78125 18910.390625 C 34528.710938 19023.90625 35396.914062 19969.804688 35283.710938 20650.898438 C 35170.390625 21331.914062 34302.1875 21785.898438 32792.382812 22277.8125 C 31282.5 22769.6875 27923.007812 24699.296875 27356.796875 26856.015625 C 26790.585938 29012.695312 27771.992188 25985.78125 27998.515625 25985.78125 C 28225 25985.78125 28526.992188 26666.796875 28111.796875 27499.21875 C 27696.484375 28331.601562 27351.601562 30424.414062 23935.117188 31333.984375 C 20518.710938 32243.710938 17956.289062 33313.90625 17582.695312 32564.6875 C 17208.984375 31815.585938 24095.3125 31173.515625 25429.804688 30156.796875 C 26764.414062 29140.195312 27621.015625 24434.492188 26035.703125 23526.40625 C 24450.3125 22618.398438 23374.609375 23495 23321.210938 23923.085938 C 23267.8125 24351.210938 25189.609375 25528.28125 25643.28125 25367.8125 C 26097.109375 25207.304688 26524.21875 24190.585938 26390.703125 24030.117188 C 26257.304688 23869.609375 25910.3125 25314.296875 25856.914062 25046.796875 C 25803.515625 24779.21875 25990.3125 23254.21875 24976.09375 23682.304688 C 23961.796875 24110.390625 24201.992188 25073.515625 23828.398438 24779.21875 C 23454.6875 24484.882812 22814.101562 23441.484375 22360.390625 23307.695312 C 21906.601562 23173.984375 19467.695312 22240 18410.78125 23375.117188 C 17353.90625 24510.195312 15768.515625 27612.8125 16674.492188 27991.09375 C 17580.390625 28369.492188 18561.796875 23148.085938 18033.28125 20802.1875 C 17504.882812 18456.40625 15617.617188 13159.296875 14409.609375 14218.710938 C 13201.796875 15278.085938 14485.117188 14748.398438 11389.882812 16640.195312 C 8294.648438 18531.992188 7237.734375 19667.109375 7011.289062 21180.585938 C 6784.765625 22693.984375 8721.210938 19829.6875 5144.609375 18063.90625 C 1568.007812 16298.085938 6105.507812 19134.101562 6372.382812 21648.90625 C 6639.335938 24163.90625 7867.109375 30638.398438 12404.609375 28658.59375 C 16942.109375 26678.789062 10909.882812 28016.484375 11710.585938 29247.1875 C 12511.40625 30477.890625 15351.601562 33449.296875 16710.390625 33449.296875 C 18069.296875 33449.296875 21269.21875 32411.289062 24346.289062 31778.59375 " transform="matrix(0.1, 0, 0, -0.1, 0, 4125)"/>
</svg>
